<svg width="22" height="22" viewBox="0 0 22 22" fill="none" xmlns="http://www.w3.org/2000/svg">
<path d="M1.83154 1.83154L20.1685 20.1685" stroke="#9B9B9B" stroke-width="1.33333" stroke-linecap="round" stroke-linejoin="round"/>
<path d="M6.15528 6.16065C3.35693 8.06201 1.83154 11 1.83154 11C1.83154 11 5.16699 17.4185 11 17.4185C12.8799 17.4185 14.502 16.7524 15.834 15.8501M10.0815 4.63525C10.3823 4.60303 10.6885 4.58154 11 4.58154C16.833 4.58154 20.1685 11 20.1685 11C20.1685 11 19.5347 12.2192 18.3315 13.5996" stroke="#9B9B9B" stroke-width="1.33333" stroke-linecap="round" stroke-linejoin="round"/>
<path d="M12.8315 13.0518C12.3481 13.4868 11.7036 13.75 11 13.75C9.47998 13.75 8.25 12.52 8.25 11C8.25 10.2427 8.55615 9.56055 9.04492 9.06641" stroke="#9B9B9B" stroke-width="1.33333" stroke-linecap="round" stroke-linejoin="round"/>
</svg>
